<?xml version="1.0" encoding="UTF-8" standalone="no"?>
<!-- Created with Inkscape (http://www.inkscape.org/) -->

<svg
   version="1.1"
   id="svg1"
   width="731.29333"
   height="798.59998"
   viewBox="0 0 731.29333 798.59998"
   sodipodi:docname="CodyCoyote_head-smile_cmyk.eps"
   xmlns:inkscape="http://www.inkscape.org/namespaces/inkscape"
   xmlns:sodipodi="http://sodipodi.sourceforge.net/DTD/sodipodi-0.dtd"
   xmlns="http://www.w3.org/2000/svg"
   xmlns:svg="http://www.w3.org/2000/svg">
  <defs
     id="defs1" />
  <sodipodi:namedview
     id="namedview1"
     pagecolor="#ffffff"
     bordercolor="#000000"
     borderopacity="0.25"
     inkscape:showpageshadow="2"
     inkscape:pageopacity="0.0"
     inkscape:pagecheckerboard="0"
     inkscape:deskcolor="#d1d1d1">
    <inkscape:page
       x="0"
       y="0"
       inkscape:label="1"
       id="page1"
       width="731.29333"
       height="798.59998"
       margin="0"
       bleed="0" />
  </sodipodi:namedview>
  <g
     id="g1"
     inkscape:groupmode="layer"
     inkscape:label="1">
    <g
       id="group-R5">
      <path
         id="path2"
         d="m 5400.81,3103.82 83.92,-5.6 -22.12,81.16 c -4.47,16.41 -102.04,365.18 -354.33,635.89 l 27.85,2.79 117.73,11.75 -79.14,87.97 c -8.74,9.71 -211.19,231.66 -502.87,356.13 -40.06,172.39 -255.2,1013.35 -766.05,1618.6 -12.22,16.01 -88.72,110.26 -183.42,95.46 l 7.2,0.68 c -8.96,-0.3 -89.68,-5.76 -159.4,-101.24 -15.9,-22.71 -368.28,-533.96 -519.59,-1398.92 -72.29,-0.29 -198.01,-19.5 -328.01,-124.44 l -33.4,-5.13 c -88.23,142.96 -442.88,666.92 -1053.78,942.71 -6.25,3.11 -78.3,36.84 -144.66,13.06 -34.2,-12.24 -60.65,-37.15 -76.49,-72.03 -1.39,-2.95 -38.73,-84.76 -31.04,-195.75 0.95,-42.03 21.93,-869.56 189.46,-1381.77 -54.07,-61.21 -179.73,-223.83 -301.38,-529.06 l -26.45,-66.37 69.94,-14.51 62.01,-12.86 c -21.61,-45.36 -48.59,-107.04 -69.05,-170.09 -200.49,-13.7 -389.998,-8.23 -563.802,16.73 -59.059,20.97 -467.739,155.17 -662.6763,-68.24 -3.207,-3.81 -224.4567,-277.94 77.0313,-574.7 21.84,-96.75 134.691,-535.32 415.352,-703.71 32.492,-98.15 176.05,-439.86 605.605,-460.97 l 124.3,-6.11 -72.73,100.98 c -1.01,1.43 -89.63,127.32 -127.97,294.4 8.87,-2.11 18.4,-4.12 28.53,-6.02 42.06,-96 188.67,-356.03 561.49,-416.49 l 84.66,-13.74 -16.22,84.21 c -8.8,45.68 -24.55,136.78 -35.91,226.5 30.15,-56.79 70.6,-116.15 124.91,-171.3 -76.5,-197.841 -43.35,-395.13 94.36,-562.759 -42.89,-153.75 -50.5,-421.961 186.63,-524.0193 10.39,-4.6719 278.95,-123.2617 587.07,-75.8398 138.15,15.9375 412.56,131.5581 446.38,452.6601 0.14,1.566 2.83,34.199 11.71,87.898 120.71,-56.019 319.32,-122.539 594.14,-131.742 l 12.7,-0.418 11.78,4.782 c 13.44,5.429 320.64,132.14 621.24,440.25 l 83.55,-57.422 41.08,-28.231 35.22,35.25 c 7.33,7.321 174.67,176.961 363.16,519.561 l 125.6,-39.93 52.57,-16.71 21,51 c 6.68,16.2 158.38,391.94 189.96,1070.89 l 71.18,-15.83 64.46,-14.32 8.03,65.54 c 1.86,15.01 39.63,341.87 -90.02,670.66 l 18.7,-1.24"
         style="fill:#adafb1;fill-opacity:1;fill-rule:nonzero;stroke:none"
         transform="matrix(0.13333333,0,0,-0.13333333,0,798.6)" />
      <path
         id="path3"
         d="m 4785.56,4482.84 h -57.44 v 37.55 h 163.66 v -37.55 h -58.15 v -160.13 h -48.07 v 160.13"
         style="fill:#adafb1;fill-opacity:1;fill-rule:nonzero;stroke:none"
         transform="matrix(0.13333333,0,0,-0.13333333,0,798.6)" />
      <path
         id="path4"
         d="m 5096.27,4398.37 c -0.89,23.78 -1.89,52.19 -1.89,81.27 h -0.63 c -7.03,-25.23 -15.88,-53.37 -24.02,-76.55 l -25.98,-77.1 h -37.55 l -22.75,76.21 c -6.97,23.46 -13.91,51.31 -19.27,77.44 h -0.62 c -0.99,-26.69 -2.26,-57.21 -3.52,-81.79 l -4.07,-75.14 h -44.62 l 13.65,197.68 h 64.11 l 20.88,-66.22 c 7.02,-22.64 13.25,-47.24 18.03,-70.41 h 1.26 c 5.69,22.87 12.88,48.64 20.27,70.97 l 22.39,65.66 h 63.19 l 11.38,-197.68 h -46.82 l -3.42,75.66"
         style="fill:#adafb1;fill-opacity:1;fill-rule:nonzero;stroke:none"
         transform="matrix(0.13333333,0,0,-0.13333333,0,798.6)" />
      <path
         id="path5"
         d="m 3101.6,4424.96 c 0,0 -172.52,36.68 -353.18,-117.75 l -88.95,-13.62 c 0,0 -360.97,643.44 -1047.59,953.43 0,0 -105.25,51.66 -141.95,-29.15 0,0 -33.05,-70.97 -25.72,-168.93 0,0 19.87,-891.39 197.77,-1398.81 0,0 -159.6,-149.08 -313.9,-536.25 l 138.62,-28.74 c 0,0 -86.33,-156.93 -117.67,-290.33 l 353.11,-1192.8 c 0,0 31.36,-266.79 251.09,-439.4 L 3067.52,683.961 c 0,0 235.41,-188.34 706.21,-204.07 0,0 329.61,133.418 635.62,463.007 l 125.58,-86.328 c 0,0 180.45,180.47 376.61,549.29 l 172.68,-54.91 c 0,0 164.77,400.17 188.34,1122.12 l 141.22,-31.39 c 0,0 47.09,384.52 -125.57,729.76 l 117.7,-7.84 c 0,0 -117.7,431.6 -431.54,698.4 l 156.92,15.68 c 0,0 -211.88,235.44 -510.06,353.13 0,0 -204.04,965.2 -761.17,1624.37 0,0 -62.62,83.7 -127.29,73.59 0,0 -58.52,-2.01 -113.06,-76.71 0,0 -372.93,-532.55 -518.11,-1427.1"
         style="fill:#231f20;fill-opacity:1;fill-rule:nonzero;stroke:none"
         transform="matrix(0.13333333,0,0,-0.13333333,0,798.6)" />
      <path
         id="path6"
         d="m 3219.01,4413.96 c 0,0 139.51,-18.36 297.3,-113.77 l 102.09,63.2 -79.26,249.39 143.46,-23.53 -82.46,246.19 c 0,0 89.23,-21.98 195.17,-61.24 0,0 70.65,484.57 -31.36,912.25 0,0 -27.46,129.45 -105.95,23.55 0,0 -261.06,-345.24 -438.99,-1296.04"
         style="fill:#adafb1;fill-opacity:1;fill-rule:nonzero;stroke:none"
         transform="matrix(0.13333333,0,0,-0.13333333,0,798.6)" />
      <path
         id="path7"
         d="m 2499.73,4250.26 c 0,0 -255.37,581.2 -854.2,865.98 0,0 396.3,-449.1 598.83,-948.14 0,0 114.46,46.98 255.37,82.16"
         style="fill:#1379c8;fill-opacity:1;fill-rule:nonzero;stroke:none"
         transform="matrix(0.13333333,0,0,-0.13333333,0,798.6)" />
      <path
         id="path8"
         d="m 1930.27,4294.32 c 0,0 -179.02,540.13 -340.47,742.66 0,0 -31.95,44.4 -53.69,34.52 0,0 -22.36,-6.57 -21,-61.16 0,0 -30.71,-393.06 212.49,-1268 0,0 63.44,80.42 189,171.95 l -75.87,68.03 75.87,81.08 -128.14,143.86 141.81,87.06"
         style="fill:#adafb1;fill-opacity:1;fill-rule:nonzero;stroke:none"
         transform="matrix(0.13333333,0,0,-0.13333333,0,798.6)" />
      <path
         id="path9"
         d="m 2667.15,4181.63 c 0,0 -256.64,-20.83 -537.73,-175.21 l 136.56,-31.69 c 0,0 -512.86,-155.9 -752.18,-760.1 l 149.08,-19.61 c 0,0 -149.08,-231.51 -196.18,-412.01 l 329.58,-1165.26 c 0,0 66.69,-262.88 188.34,-353.13 l 207.96,-239.33 219.7,309.93 c 0,0 -90.23,15.73 -164.79,74.58 l -39.23,-62.79 c 0,0 -149.11,188.34 -180.47,349.2 l -77.67,1155.6 c 0,0 -317.83,394.56 -172.66,653.45 0,0 158.43,476.91 730.89,157.47 0,0 14.67,223.57 158.8,518.9"
         style="fill:#1379c8;fill-opacity:1;fill-rule:nonzero;stroke:none"
         transform="matrix(0.13333333,0,0,-0.13333333,0,798.6)" />
      <path
         id="path10"
         d="m 1906.11,2824.73 c -164.79,235.46 -168.91,538.4 -168.91,538.4 -16.94,365.67 257.86,347.14 257.86,347.14 269.42,18.3 588.52,-214.46 588.52,-214.46 44.52,587.16 248.4,720.96 248.4,720.96 146.56,133.84 313.98,100.37 313.98,100.37 389.76,-54.92 655.39,-410.69 655.39,-410.69 0,0 307.49,-423.9 393.44,-758.02 0,0 -3.19,-700.03 -85.9,-1384.57 0,0 -433.05,20.51 -565.72,-136.28 0,0 12.61,-142.88 93.08,-287.64 l -124.65,8.01 c 0,0 59.7,-496.348 172.34,-705.419 0,0 -407.39,-15.629 -616.48,185.391 -209.07,200.978 -605.79,614.738 -605.79,614.738 0,0 -156.78,64.27 -201.02,152.75 l -36.17,-44.24 c 0,0 -92.46,104.54 -144.73,265.35 l -173.64,1008.21"
         style="fill:#adafb1;fill-opacity:1;fill-rule:nonzero;stroke:none"
         transform="matrix(0.13333333,0,0,-0.13333333,0,798.6)" />
      <path
         id="path11"
         d="m 3813.9,3938.07 c 0,0 -45.04,137.27 -179.91,278.46 0,0 87.98,31.86 263.94,43.71 0,0 -4.54,62.96 -18.21,116.7 l 126.73,-25.48 c 0,0 -18.21,109.41 -44.68,188.71 0,0 92.11,-37.36 137.7,-69.31 0,0 3.87,709.47 -204.07,1156.7 0,0 580.66,-753.27 427.62,-1765.56 0,0 137.33,129.49 364.93,207.95 0,0 133.38,-58.85 211.84,-137.33 0,0 -74.55,-3.91 -192.25,-27.46 0,0 392.34,-196.15 506.15,-616 l -172.65,15.73 c 0,0 207.95,-227.61 239.36,-690.58 l -184.43,39.24 c 0,0 70.62,-388.43 -82.39,-1082.9 l -176.55,66.71 c 0,0 -54.91,-278.55 -321.73,-596.38 l -113.77,94.15 c 0,0 -153.04,-251.079 -553.22,-443.349 0,0 -144.22,238.43 -191.3,536.599 l 176.55,3.94 c 0,0 -142.17,259.87 -157.91,365.81 l 53.65,1591.62 c 0,0 127.86,112.73 340.03,141.26 0,0 -162.17,413.27 -408.1,612.07 l 152.67,-5.01"
         style="fill:#1379c8;fill-opacity:1;fill-rule:nonzero;stroke:none"
         transform="matrix(0.13333333,0,0,-0.13333333,0,798.6)" />
      <path
         id="path12"
         d="m 2490.74,3053.75 c 0,0 -19.61,107.93 -49.03,172.63 h 66.69 c 0,0 -43.12,121.63 -160.86,196.18 0,0 51,7.87 111.79,0 0,0 -302.1,227.57 -508.06,158.92 0,0 -158.17,-47.15 -136.59,-259.03 0,0 41.9,-295.64 230.24,-460.46 l 304.58,111.35 141.24,80.41"
         style="fill:#231f20;fill-opacity:1;fill-rule:nonzero;stroke:none"
         transform="matrix(0.13333333,0,0,-0.13333333,0,798.6)" />
      <path
         id="path13"
         d="m 2396.46,3148.76 c 0,0 -77.06,268.81 -273.22,312.45 0,0 -62.45,17.44 -113.38,-30.53 0,0 -158.94,-106.29 101.98,-480.98 l 149.18,45.93 c 0,0 -139.06,203.27 -82.16,295.5 0,0 29.4,49.04 84.32,13.76 0,0 -19.62,-62.8 -13.72,-147.14 0,0 39.23,39.21 86.33,64.72 0,0 35.01,-27.69 60.67,-73.71"
         style="fill:#ffffff;fill-opacity:1;fill-rule:nonzero;stroke:none"
         transform="matrix(0.13333333,0,0,-0.13333333,0,798.6)" />
      <path
         id="path14"
         d="m 3557.58,3249.67 c 0,0 -60.11,274.09 -95.88,366.92 h 81.04 c 0,0 -52.45,174.46 -195.57,281.36 0,0 62.01,11.28 135.93,0 0,0 -367.32,326.4 -617.76,227.9 0,0 -192.32,-67.6 -166.08,-371.48 0,0 50.94,-424.04 279.96,-660.4 l 375.04,103.57 203.32,52.13"
         style="fill:#231f20;fill-opacity:1;fill-rule:nonzero;stroke:none"
         transform="matrix(0.13333333,0,0,-0.13333333,0,798.6)" />
      <path
         id="path15"
         d="m 3407.49,3465.66 c 0,0 -104.17,461.79 -369.47,536.71 0,0 -84.5,29.95 -153.37,-52.41 0,0 -214.98,-182.62 137.93,-826.2 l 201.77,78.86 c 0,0 -188.11,349.18 -111.14,507.6 0,0 39.77,84.24 114.04,23.59 0,0 -26.5,-107.86 -18.59,-252.71 0,0 53.1,67.37 116.79,111.12 0,0 47.4,-47.54 82.04,-126.56"
         style="fill:#ffffff;fill-opacity:1;fill-rule:nonzero;stroke:none"
         transform="matrix(0.13333333,0,0,-0.13333333,0,798.6)" />
      <path
         id="path16"
         d="m 3618.02,4238.54 c 0,0 151.31,-138.88 280.28,-379.47 l -106.64,9.9 c 0,0 265.35,-255.42 381.93,-622.46 0,0 -392.37,-43.4 -414.7,-93.02 l -73.63,26.21 -129.36,18.03 c 0,0 258.7,142.41 473.84,165.4 0,0 -148.8,302.52 -409.19,577.8 0,0 69.37,9.88 151.21,2.48 0,0 -96.67,101.71 -168.6,168.63 l 14.86,126.5"
         style="fill:#231f20;fill-opacity:1;fill-rule:nonzero;stroke:none"
         transform="matrix(0.13333333,0,0,-0.13333333,0,798.6)" />
      <path
         id="path17"
         d="m 2130.2,3701.65 c 0,0 -329.19,80.31 -379.66,-316.8 l 21.3,17.77 c 0,0 -12.31,-292.43 132.02,-509.61 l -38.13,-81.82 c 0,0 -150.21,166.86 -158.31,501.29 l -30.14,-32.82 c 0,0 -91.53,570.19 522.69,490.16 l -69.77,-68.17"
         style="fill:#231f20;fill-opacity:1;fill-rule:nonzero;stroke:none"
         transform="matrix(0.13333333,0,0,-0.13333333,0,798.6)" />
      <path
         id="path18"
         d="m 2940.36,3064.16 c 0,0 -98.03,181.02 -524.1,-11.28 0,0 -859.68,-343.16 -1685.455,-222.47 0,0 -422.278,158.36 -603.27,-49.06 0,0 -198.3592,-238.39 86.703,-505.21 0,0 105.571,-531.62 410.996,-693.79 0,0 98.036,-418.53 558.086,-441.14 0,0 -135.76,188.53 -154.63,422.33 0,0 37.69,-30.25 147.05,-45.33 0,0 109.32,-343.06 527.85,-410.94 0,0 -60.3,312.96 -48.97,441.14 0,0 603.26,128.23 897.36,407.26 0,0 -30.2,-411.05 -362,-878.6 0,0 -113.11,64.14 -169.64,264 0,0 -331.83,-358.191 -7.56,-716.379 0,0 -128.2,-365.769 143.33,-482.621 0,0 260.13,-116.9489 554.25,-71.6794 0,0 358.19,41.4884 395.92,399.7184 0,0 52.77,682.431 539.17,1089.631 0,0 286.54,252.61 471.28,105.57 0,0 154.6,365.73 158.4,678.69 0,0 67.83,-22.64 101.8,-64.1 0,0 196.04,641.01 -297.87,901.17 0,0 -531.64,301.68 -1138.7,-116.91"
         style="fill:#231f20;fill-opacity:1;fill-rule:nonzero;stroke:none"
         transform="matrix(0.13333333,0,0,-0.13333333,0,798.6)" />
      <path
         id="path19"
         d="m 2887.53,2905.83 c 0,0 245.15,252.62 652.32,233.75 0,0 772.96,3.8 750.33,-674.89 0,0 -48.95,22.62 -101.78,45.24 0,0 -22.64,-384.61 -128.2,-629.68 0,0 -399.67,184.77 -814.46,-622.14 0,0 -131.95,-241.29 -211.13,-607.008 0,0 -41.48,-313.012 -192.28,-388.383 0,0 -260.2,-116.957 -584.45,-26.41 0,0 -267.73,75.421 -124.41,395.871 0,0 30.15,-128.168 226.19,-147.039 0,0 282.84,-33.903 407.25,147.039 0,0 689.03,891.38 457.53,1887.99 0,0 66.69,-15.71 125.56,-58.87 0,0 -3.92,215.79 -243.25,243.27 0,0 -176.54,23.55 -282.49,-113.81 0,0 125.51,23.55 211.84,-11.75 0,0 -559.42,-908.22 -1658,-931.77 0,0 -417.526,1.87 -645.096,260.86 0,0 19.613,-145.18 141.242,-227.62 0,0 -223.613,-74.53 -376.676,219.76 0,0 -94.148,196.15 -125.515,329.58 0,0 170.968,-91.21 324.808,87.78 0,0 181.317,57.39 381.407,25.98 0,0 1315.47,49.44 1809.26,562.25"
         style="fill:#adafb1;fill-opacity:1;fill-rule:nonzero;stroke:none"
         transform="matrix(0.13333333,0,0,-0.13333333,0,798.6)" />
      <path
         id="path20"
         d="m 2839.94,962.512 c 0,0 -266.77,-7.813 -360.94,258.948 0,0 -125.59,-105.95 -74.58,-360.96 0,0 19.66,-109.871 145.17,-223.629 0,0 -160.85,-66.723 -270.69,7.809 0,0 -156.94,109.922 -43.16,306.082 0,0 380.57,604.198 396.27,949.478 0,0 0,70.59 43.17,74.53 0,0 51,15.68 66.69,-66.67 0,0 23.5,-125.61 11.75,-239.37 0,0 -11.26,-101.36 42.46,44.24 0,0 41.05,123.12 59.64,195.46 0,0 41.76,153.97 177.76,201.02 0,0 149.11,52.39 138.65,-190.91 0,0 20.9,-414.6 -332.19,-956.028"
         style="fill:#adafb1;fill-opacity:1;fill-rule:nonzero;stroke:none"
         transform="matrix(0.13333333,0,0,-0.13333333,0,798.6)" />
      <path
         id="path21"
         d="m 422.379,2737.75 c 0,0 -186.277,63.45 -237.07,-86.83 0,0 -25.422,-86.84 19.054,-143.96 0,0 63.481,196.91 218.016,230.79"
         style="fill:#ffffff;fill-opacity:1;fill-rule:nonzero;stroke:none"
         transform="matrix(0.13333333,0,0,-0.13333333,0,798.6)" />
      <path
         id="path22"
         d="m 748.734,1554.96 c 0,0 70.598,-223.63 286.366,-317.83 0,0 -74.526,137.36 -102.006,310.02 0,0 -102.012,-19.67 -184.36,7.81"
         style="fill:#ffffff;fill-opacity:1;fill-rule:nonzero;stroke:none"
         transform="matrix(0.13333333,0,0,-0.13333333,0,798.6)" />
      <path
         id="path23"
         d="m 1305.84,1507.87 c 0,0 70.6,-19.62 231.51,7.86 0,0 3.93,-164.78 50.98,-294.27 0,0 -235.39,102.01 -282.49,286.41"
         style="fill:#ffffff;fill-opacity:1;fill-rule:nonzero;stroke:none"
         transform="matrix(0.13333333,0,0,-0.13333333,0,798.6)" />
      <path
         id="path24"
         d="m 2004.24,1154.79 c 0,0 -74.53,-121.67 -27.48,-302.099 0,0 43.18,-184.461 176.56,-153.089 0,0 -78.48,78.507 0,255.097 0,0 -117.67,66.611 -149.08,200.091"
         style="fill:#ffffff;fill-opacity:1;fill-rule:nonzero;stroke:none"
         transform="matrix(0.13333333,0,0,-0.13333333,0,798.6)" />
      <path
         id="path25"
         d="m 2648.75,916.031 c -66.11,31.078 -157.56,90.729 -183.99,190.719 0,0 -29.49,-186.508 64.28,-337.168 0,0 46.35,-68.48 108.52,-89.551 0,0 50.61,-24.261 95.88,27.379 0,0 57.96,63.262 60.06,139.102 0,0 2.25,34.398 -42.48,41.429 -8.36,1.309 -61.38,8.891 -102.27,28.09"
         style="fill:#ffffff;fill-opacity:1;fill-rule:nonzero;stroke:none"
         transform="matrix(0.13333333,0,0,-0.13333333,0,798.6)" />
      <path
         id="path26"
         d="m 2680.42,998 c 0,0 155.59,192.04 270.7,490.25 0,0 105.91,264.18 94.16,504.87 0,0 -1.5,38.94 14.16,41.52 0,0 15.96,2.95 24.59,-40.31 0,0 36.46,-160.76 -22.37,-392.32 0,0 -78.5,-353.07 -290.35,-631.678 0,0 -37.54,2.617 -90.89,27.668"
         style="fill:#ffffff;fill-opacity:1;fill-rule:nonzero;stroke:none"
         transform="matrix(0.13333333,0,0,-0.13333333,0,798.6)" />
      <path
         id="path27"
         d="m 2448.22,759.141 c 0,0 -80.39,-27.481 -128.16,0.621 0,0 -28.14,15.07 -36.62,3.918 0,0 -15.67,-12.348 9.81,-46.379 0,0 55.6,-73.93 202.04,-25.52 0,0 -32.03,41.848 -47.07,67.36"
         style="fill:#ffffff;fill-opacity:1;fill-rule:nonzero;stroke:none"
         transform="matrix(0.13333333,0,0,-0.13333333,0,798.6)" />
      <path
         id="path28"
         d="m 2499.17,2400.55 c 0,0 -82.93,22.63 -116.87,41.53 0,0 388.36,290.26 531.67,497.65 0,0 -90.53,192.31 -365.78,56.55 0,0 -855.86,-395.87 -1775.909,-327.99 0,0 33.899,-177.24 -75.418,-350.69 0,0 757.897,-365.73 1410.177,-188.51 0,0 -75.37,26.33 -109.31,64.11 0,0 266.64,46.59 501.44,207.35"
         style="fill:#1379c8;fill-opacity:1;fill-rule:nonzero;stroke:none"
         transform="matrix(0.13333333,0,0,-0.13333333,0,798.6)" />
    </g>
  </g>
</svg>
