<?xml version="1.0" encoding="UTF-8" standalone="no"?>
<!-- Created with Inkscape (http://www.inkscape.org/) -->

<svg
   version="1.1"
   id="svg1"
   width="242.65334"
   height="203.66667"
   viewBox="0 0 242.65334 203.66667"
   sodipodi:docname="csusb_logo_5-csusb-vert_cmyk.eps"
   xmlns:inkscape="http://www.inkscape.org/namespaces/inkscape"
   xmlns:sodipodi="http://sodipodi.sourceforge.net/DTD/sodipodi-0.dtd"
   xmlns="http://www.w3.org/2000/svg"
   xmlns:svg="http://www.w3.org/2000/svg">
  <defs
     id="defs1" />
  <sodipodi:namedview
     id="namedview1"
     pagecolor="#ffffff"
     bordercolor="#000000"
     borderopacity="0.25"
     inkscape:showpageshadow="2"
     inkscape:pageopacity="0.0"
     inkscape:pagecheckerboard="0"
     inkscape:deskcolor="#d1d1d1">
    <inkscape:page
       x="0"
       y="0"
       inkscape:label="1"
       id="page1"
       width="242.65334"
       height="203.66667"
       margin="0"
       bleed="0" />
  </sodipodi:namedview>
  <g
     id="g1"
     inkscape:groupmode="layer"
     inkscape:label="1">
    <g
       id="group-R5">
      <path
         id="path2"
         d="M 1418,459.941 V 346.809 c 8.06,-1.7 15,-2.84 20.8,-3.399 5.8,-0.57 12.3,-0.84 19.53,-0.84 15.97,0 29.7,2.192 41.17,6.571 11.6,4.519 20.37,11.039 26.32,19.531 6.08,8.488 9.12,18.738 9.13,30.769 0,19.95 -7.15,35.45 -21.45,46.489 -7.07,5.8 -15.27,9.902 -24.62,12.308 -9.33,2.551 -21.37,3.821 -36.08,3.821 -11.74,0 -23.34,-0.707 -34.8,-2.118 z m 0,120.774 v -90.004 c 5.51,-0.563 11.3,-0.852 17.4,-0.852 14.14,0 26.74,1.993 37.78,5.95 11.04,3.961 19.59,9.543 25.67,16.773 6.1,7.348 9.13,15.848 9.14,25.465 0,13.586 -5.45,24.473 -16.34,32.687 -10.76,8.34 -24.91,12.52 -42.46,12.52 -9.06,0 -19.46,-0.844 -31.19,-2.539 z m 23.76,32.051 h 14.44 c 15.84,0 28.57,-0.852 38.2,-2.551 9.77,-1.563 18.19,-4.324 25.26,-8.281 7.93,-4.102 14.64,-9.063 20.17,-14.856 5.66,-5.797 9.9,-12.242 12.74,-19.312 2.96,-6.938 4.45,-14.368 4.45,-22.286 0,-9.492 -2.4,-18.609 -7.22,-27.378 -4.67,-8.641 -11.1,-15.711 -19.31,-21.231 -4.12,-2.84 -10.62,-6.371 -19.53,-10.609 14.28,-3.68 25.75,-8 34.38,-12.953 13.02,-7.36 23.07,-16.977 30.15,-28.868 7.07,-11.882 10.6,-24.832 10.61,-38.839 0,-17.27 -5.18,-33.321 -15.5,-48.18 -10.33,-14.711 -24.4,-26.262 -42.23,-34.602 -4.83,-2.121 -9.98,-4.031 -15.5,-5.73 -5.38,-1.551 -11.53,-2.899 -18.47,-4.031 -6.8,-1 -13.02,-1.629 -18.67,-1.911 -5.53,-0.277 -14.08,-0.57 -25.68,-0.847 H 1418 1352.62 c 5.66,2.969 9.97,6.508 12.95,10.609 2.97,4.25 4.94,9.981 5.94,17.199 1.13,7.352 1.69,17.602 1.7,30.77 v 184.883 c 0,13.152 -0.57,23.34 -1.7,30.554 -1,7.356 -2.97,13.086 -5.94,17.2 -2.98,4.238 -7.29,7.847 -12.95,10.82 H 1418 c 7.49,0 15.42,0.137 23.76,0.43 z m -155.15,-2.981 V 557.57 c -9.9,9.766 -21.15,17.196 -33.75,22.293 -12.46,5.235 -25.4,7.84 -38.84,7.852 -18.11,0 -32.76,-4.031 -43.93,-12.098 -11.04,-7.929 -16.57,-18.254 -16.57,-30.988 0,-7.645 1.84,-14.363 5.53,-20.168 3.81,-5.66 10.39,-11.391 19.74,-17.18 9.33,-5.672 23.56,-12.953 42.66,-21.871 20.51,-9.629 35.08,-16.769 43.72,-21.441 8.76,-4.66 16.48,-9.84 23.14,-15.489 7.92,-6.089 14,-13.449 18.25,-22.082 4.38,-8.636 6.57,-17.886 6.58,-27.808 0,-11.309 -2.55,-22.352 -7.64,-33.102 -4.96,-10.758 -11.82,-20.449 -20.59,-29.078 -23.5,-22.648 -55.55,-33.961 -96.15,-33.961 -14.44,0 -27.87,1.133 -40.33,3.391 -12.46,2.281 -25.96,5.941 -40.53,11.051 l -13.81,56.871 c 30.7,-24.34 64.32,-36.5 100.82,-36.5 12.46,0 23.98,2.047 34.61,6.148 10.6,4.102 18.89,9.699 24.82,16.781 6.09,7.071 9.12,15.047 9.13,23.981 0,12.726 -5.03,23.617 -15.06,32.68 -4.4,4.097 -10.55,8.277 -18.47,12.527 -7.93,4.383 -21.38,10.883 -40.32,19.519 -17.27,7.641 -30.51,14.082 -39.7,19.313 -9.2,5.371 -17.13,11.109 -23.78,17.199 -7.21,6.649 -13.01,14.711 -17.4,24.192 -4.24,9.476 -6.37,19.097 -6.37,28.867 0,16.414 4.67,30.703 14.01,42.879 9.34,12.312 22.57,21.789 39.69,28.437 17.26,6.653 37.43,9.973 60.5,9.981 23.06,0 46.41,-3.328 70.04,-9.981 z M 990.516,310.301 v 31.84 c -21.653,-26.18 -51.934,-39.262 -90.84,-39.27 -21.934,0 -41.465,4.461 -58.586,13.367 -16.981,9.063 -29.442,21.442 -37.352,37.153 -2.968,5.648 -5.246,11.168 -6.797,16.55 -1.418,5.368 -2.48,11.887 -3.183,19.528 -0.567,7.793 -0.852,18.043 -0.852,30.769 v 133.524 c 0,13.152 -0.566,23.34 -1.687,30.554 -0.996,7.356 -2.981,13.086 -5.949,17.2 -2.977,4.238 -7.293,7.847 -12.95,10.82 h 87.024 c -5.664,-3.117 -9.903,-6.723 -12.735,-10.82 -2.832,-3.965 -4.816,-9.629 -5.937,-16.985 -1.133,-7.363 -1.699,-17.617 -1.699,-30.769 V 420.238 c 0,-15.269 1.054,-27.027 3.183,-35.226 2.254,-8.071 6.504,-15.852 12.735,-23.34 6.785,-8.211 15.273,-14.512 25.468,-18.902 10.332,-4.239 21.289,-6.36 32.899,-6.36 13.586,0 26.242,2.82 37.988,8.481 11.887,5.8 21.223,13.519 28.02,23.148 3.672,4.941 6.152,9.961 7.429,15.07 1.418,5.223 2.121,12.371 2.121,21.43 v 149.223 c 0,13.152 -0.566,23.406 -1.699,30.769 -1.133,7.356 -3.117,13.02 -5.937,16.985 -2.832,4.097 -7.082,7.703 -12.735,10.82 h 87.025 c -5.52,-2.973 -9.77,-6.516 -12.74,-10.606 -2.98,-4.113 -5.03,-9.765 -6.16,-16.984 -1.13,-7.215 -1.7,-17.547 -1.7,-30.984 V 368.879 c 0,-13.438 0.57,-23.77 1.7,-30.988 1.13,-7.219 3.18,-12.879 6.16,-16.981 2.97,-4.101 7.22,-7.64 12.74,-10.609 z M 716.277,609.785 V 557.57 c -9.914,9.766 -21.164,17.196 -33.75,22.293 -12.461,5.235 -25.41,7.84 -38.847,7.852 -18.106,0 -32.754,-4.031 -43.926,-12.098 -11.047,-7.929 -16.563,-18.254 -16.563,-30.988 0,-7.645 1.836,-14.363 5.516,-20.168 3.82,-5.66 10.402,-11.391 19.738,-17.18 9.344,-5.672 23.563,-12.953 42.664,-21.871 20.52,-9.629 35.09,-16.769 43.723,-21.441 8.77,-4.66 16.484,-9.84 23.145,-15.489 7.91,-6.089 14.003,-13.449 18.242,-22.082 4.394,-8.636 6.582,-17.886 6.582,-27.808 0,-11.309 -2.539,-22.352 -7.637,-33.102 -4.961,-10.758 -11.816,-20.449 -20.586,-29.078 -23.496,-22.648 -55.547,-33.961 -96.152,-33.961 -14.434,0 -27.871,1.133 -40.332,3.391 -12.453,2.281 -25.957,5.941 -40.539,11.051 l -13.797,56.871 c 30.703,-24.34 64.305,-36.5 100.82,-36.5 12.449,0 23.985,2.047 34.598,6.148 10.617,4.102 18.898,9.699 24.836,16.781 6.082,7.071 9.121,15.047 9.121,23.981 0,12.726 -5.02,23.617 -15.059,32.68 -4.394,4.097 -10.547,8.277 -18.476,12.527 -7.922,4.383 -21.368,10.883 -40.325,19.519 -17.265,7.641 -30.496,14.082 -39.695,19.313 -9.199,5.371 -17.121,11.109 -23.769,17.199 -7.207,6.649 -13.02,14.711 -17.403,24.192 -4.238,9.476 -6.367,19.097 -6.367,28.867 0,16.414 4.668,30.703 14.004,42.879 9.344,12.312 22.566,21.789 39.695,28.437 17.258,6.653 37.422,9.973 60.489,9.981 23.066,0 46.418,-3.328 70.05,-9.981 z m -237.304,-1.687 v -52.649 c -15.274,8.77 -29.504,15.137 -42.657,19.114 -13.164,4.089 -26.75,6.14 -40.761,6.152 -21.075,0 -39.973,-4.746 -56.66,-14.223 -16.711,-9.488 -29.727,-22.793 -39.063,-39.914 -9.199,-16.976 -13.789,-36.359 -13.789,-58.148 0,-23.629 5.086,-45.289 15.273,-64.95 10.196,-19.671 24.122,-35.242 41.817,-46.691 17.683,-11.328 37.137,-16.988 58.367,-16.988 15.988,0 31.621,2.258 46.906,6.789 15.293,4.672 33.184,12.449 53.711,23.351 l -23.144,-53.48 c -8.352,-3.402 -16.203,-6.02 -23.555,-7.859 -7.363,-1.973 -14.934,-3.383 -22.715,-4.243 -7.637,-0.988 -15.996,-1.48 -25.039,-1.488 -25.469,0 -49.035,3.758 -70.684,11.25 -21.515,7.488 -40.05,18.25 -55.605,32.258 -15.43,14.16 -27.246,30.922 -35.449,50.312 -8.067,19.52 -12.102,40.891 -12.102,64.098 0,29.992 7.004,57.09 21.008,81.289 14.012,24.34 33.398,43.371 58.164,57.094 24.902,13.73 52.703,20.586 83.418,20.594 23.055,0 50.574,-3.899 82.559,-11.668"
         style="fill:#7b7979;fill-opacity:1;fill-rule:evenodd;stroke:none"
         transform="matrix(0.13333333,0,0,-0.13333333,0,203.66667)" />
      <path
         id="path3"
         d="m 343.867,752.766 c 81.012,257.484 288.246,412.214 567.707,412.214 279.456,0 484.806,-154.73 567.696,-412.214 11.02,-34.18 87.37,-25.649 87.37,-25.649 -72.7,293.343 -338.78,498.083 -655.91,498.083 -317.132,0 -583.214,-204.74 -655.914,-498.083 0,0 78.383,-8.258 89.051,25.649"
         style="fill:#1379c8;fill-opacity:1;fill-rule:evenodd;stroke:none"
         transform="matrix(0.13333333,0,0,-0.13333333,0,203.66667)" />
      <path
         id="path4"
         d="m 1443.19,726.184 c -19.76,3.652 -46.96,13.425 -63.82,28.113 C 1092.48,1004.5 1031.94,1029.88 1031.94,1029.88 967.605,993.977 857.977,919.992 857.977,919.992 c 0,0 -54.063,16.985 -100.723,28.082 -31.449,-24.07 -98.359,-85.949 -98.359,-85.949 0,0 -82.309,14.109 -92.575,15.945 C 549.555,861.984 495.934,802.387 450.98,757.863 432.195,739.27 389.301,728.137 375.27,726.184 h 1067.92"
         style="fill:#1379c8;fill-opacity:1;fill-rule:evenodd;stroke:none"
         transform="matrix(0.13333333,0,0,-0.13333333,0,203.66667)" />
    </g>
  </g>
</svg>
